<?xml version="1.0" standalone="no"?>
<!DOCTYPE svg PUBLIC "-//W3C//DTD SVG 20010904//EN"
 "http://www.w3.org/TR/2001/REC-SVG-20010904/DTD/svg10.dtd">
<svg version="1.0" xmlns="http://www.w3.org/2000/svg"
 width="50pt" height="50pt" viewBox="22 22 734.000000 714.000000"
 preserveAspectRatio="xMidYMid meet">
<metadata>
Created by potrace 1.16, written by Peter Selinger 2001-2019
</metadata>
<g transform="translate(0.000000,714.000000) scale(0.100000,-0.100000)"
fill="#1E3F66" stroke="none">
<path d="M2345 6867 c-44 -56 -102 -132 -130 -169 -55 -74 -60 -76 -145 -53
-82 22 -80 23 -63 -42 8 -32 21 -70 29 -86 8 -15 12 -33 8 -40 -4 -7 -65 -88
-136 -180 l-129 -168 49 -44 c65 -59 105 -123 134 -215 20 -66 23 -94 22 -245
0 -146 -5 -196 -33 -349 -73 -412 -97 -731 -71 -954 45 -389 202 -692 495
-960 l56 -51 -56 -35 c-131 -84 -274 -141 -381 -152 l-64 -7 0 238 c0 198 -3
243 -16 271 -62 130 -358 238 -688 251 l-139 6 6 -29 c41 -182 -1 -340 -121
-467 l-56 -58 64 8 c149 19 310 -2 415 -54 45 -21 54 -30 50 -47 -36 -159 -85
-426 -81 -442 14 -56 83 -108 186 -142 109 -35 188 -46 340 -46 169 1 279 21
435 79 120 45 188 82 359 193 71 46 159 102 194 124 l65 39 81 -32 c265 -105
410 -184 549 -297 l77 -63 58 49 c132 113 344 228 569 307 l51 18 155 -101
c318 -208 425 -260 629 -304 133 -28 384 -31 495 -5 160 37 240 79 270 142 15
31 14 43 -20 222 -20 103 -39 206 -42 228 l-6 40 51 22 c119 53 288 72 429 49
l54 -8 -55 55 c-63 62 -111 151 -129 235 -11 55 -7 189 7 240 6 22 5 22 -97
22 -236 0 -526 -72 -648 -161 -22 -16 -53 -48 -68 -71 l-28 -41 -3 -239 -4
-238 -36 0 c-91 1 -240 55 -374 136 l-60 37 33 26 c111 84 280 276 355 401
144 242 206 491 205 830 0 221 -15 372 -66 680 -78 463 -51 672 106 835 l62
65 -37 46 c-20 26 -36 50 -36 54 0 4 8 18 19 31 32 42 53 91 48 115 -3 16 4
31 20 46 37 35 89 108 133 189 22 39 40 73 40 76 0 2 -18 -6 -40 -17 -52 -27
-61 -25 -45 8 8 15 23 51 34 80 19 48 19 52 3 52 -39 0 -218 -53 -367 -108
-88 -33 -160 -59 -161 -58 -4 6 -239 313 -245 320 -5 6 -18 -2 -30 -18 -38
-49 -62 -68 -119 -94 -49 -23 -67 -26 -165 -25 -71 0 -164 10 -260 26 -451 79
-678 92 -970 58 -99 -12 -220 -28 -270 -36 -49 -8 -137 -22 -194 -31 -152 -24
-270 -17 -347 21 -39 20 -69 44 -89 72 -16 23 -32 42 -35 42 -3 1 -41 -45 -85
-102z m119 -6 c39 -40 111 -70 206 -83 74 -11 97 -10 298 21 641 97 772 97
1362 0 299 -50 434 -37 534 51 45 40 33 48 155 -115 l90 -120 -57 -22 -57 -22
-25 28 c-14 15 -39 45 -55 66 l-31 38 -54 -20 c-61 -23 -175 -43 -243 -43 -25
0 -159 18 -298 40 -608 95 -666 94 -1384 -15 -142 -22 -286 -16 -370 14 -33
12 -67 24 -77 27 -11 4 -30 -13 -65 -60 -26 -36 -55 -65 -63 -65 -25 -1 -115
25 -115 32 0 10 207 277 215 277 3 0 19 -13 34 -29z m3166 -126 c0 -14 -41
-85 -66 -114 -37 -45 -74 -61 -284 -126 -102 -31 -225 -76 -275 -100 l-90 -44
-70 19 c-107 29 -269 27 -377 -4 -109 -32 -215 -81 -303 -140 -57 -39 -73 -45
-91 -38 -20 10 -20 9 -5 -24 13 -30 19 -34 51 -32 20 1 42 -2 48 -6 15 -9 15
-41 2 -66 -10 -18 -9 -18 23 -5 67 28 101 -4 67 -62 -25 -42 -25 -46 -1 -33
58 30 105 -6 59 -45 l-26 -22 39 -12 c21 -7 39 -16 39 -21 0 -33 -138 -6 -275
55 -44 19 -96 35 -115 35 -19 0 -44 3 -56 6 -19 5 -19 7 12 38 21 21 38 53 48
89 9 31 23 81 31 111 21 75 88 148 161 175 74 28 190 47 364 61 188 14 333 50
610 153 348 129 480 170 480 152z m-3445 -165 c64 -17 154 -38 199 -46 44 -8
149 -33 232 -54 124 -33 186 -42 340 -55 210 -17 287 -33 321 -67 25 -25 63
-123 63 -162 0 -14 4 -27 9 -30 4 -3 11 -24 15 -47 9 -58 39 -112 83 -148 38
-31 37 -33 -20 -45 -15 -4 -44 -24 -65 -45 -20 -21 -57 -47 -83 -58 -25 -11
-62 -35 -82 -53 -41 -36 -59 -36 -122 1 l-36 22 22 23 c20 21 20 24 5 39 -9 9
-16 20 -16 24 0 17 27 31 62 31 43 0 44 1 22 35 -22 34 -4 55 45 55 36 0 37 1
33 31 -5 36 8 49 51 49 20 0 30 7 38 26 13 35 7 38 -22 15 -14 -11 -38 -21
-53 -23 -16 -1 -33 -11 -37 -20 -5 -10 -13 -26 -18 -35 -4 -10 -19 -20 -32
-21 -13 -2 -28 -7 -33 -12 -4 -4 -29 2 -55 15 -25 13 -89 36 -141 51 -115 33
-127 39 -151 86 -23 44 -24 68 -5 68 24 0 143 -27 259 -59 113 -31 128 -27 47
14 -54 27 -104 40 -333 85 -87 17 -197 43 -245 57 -110 31 -272 109 -337 161
-47 38 -107 122 -87 122 6 0 63 -14 127 -30z m3421 -45 c-79 -113 -143 -153
-321 -196 -114 -27 -208 -34 -295 -19 -69 12 -72 13 -49 25 67 35 272 109 414
150 88 25 187 59 220 74 33 16 62 27 64 25 2 -2 -13 -29 -33 -59z m-3321 -170
c50 -23 131 -55 180 -69 50 -15 114 -33 143 -42 65 -19 115 -61 136 -115 9
-23 15 -43 14 -45 -7 -6 -259 16 -297 26 -103 28 -193 89 -258 175 -40 53 -93
144 -93 160 0 3 19 -6 43 -20 23 -15 83 -46 132 -70z m-186 11 l29 -59 -60
-78 -60 -79 41 -62 c52 -80 86 -185 101 -318 17 -144 8 -288 -35 -540 -53
-317 -64 -414 -71 -630 -5 -158 -3 -213 10 -290 52 -298 220 -591 466 -815 36
-32 66 -62 68 -66 2 -5 -63 -57 -105 -82 -16 -10 -122 81 -205 177 -166 192
-274 406 -330 657 -21 95 -23 127 -23 379 1 296 5 340 76 740 40 228 43 418
10 555 -24 98 -47 144 -117 229 -41 51 -44 59 -32 76 38 54 203 268 205 266 1
-1 16 -28 32 -60z m1692 11 c19 -12 35 -32 37 -44 2 -15 8 -19 23 -16 23 6 25
-10 2 -28 -12 -11 -17 -11 -20 -2 -3 10 -9 10 -23 1 -16 -10 -26 -8 -58 10
-31 17 -56 22 -113 22 -95 0 -112 10 -67 38 80 50 163 57 219 19z m1053 -38
c22 -8 41 -18 43 -24 1 -5 -72 -29 -165 -51 -92 -23 -241 -69 -332 -103 -136
-51 -166 -59 -172 -47 -15 27 -39 46 -59 46 -37 0 -18 17 74 67 198 107 295
134 462 129 61 -1 127 -9 149 -17z m632 -43 c-60 -103 -167 -145 -375 -147
-106 -1 -131 10 -80 36 19 10 50 32 69 51 32 30 47 36 145 53 61 10 142 29
180 43 39 13 74 21 79 17 5 -4 -3 -28 -18 -53z m-1811 -2 c77 -6 82 -8 123
-49 47 -48 51 -66 21 -96 l-21 -21 -32 31 c-26 25 -40 31 -75 31 -44 0 -81 14
-81 30 0 11 118 14 144 4 9 -3 13 -10 10 -15 -3 -5 4 -9 16 -9 15 0 20 5 18
18 -3 18 -58 29 -163 31 -37 1 -57 8 -77 26 -36 31 -35 38 5 32 17 -3 68 -9
112 -13z m1374 -25 c31 -11 31 -12 15 -30 -9 -11 -21 -19 -27 -19 -5 0 -41
-20 -81 -44 -39 -25 -84 -48 -101 -51 -16 -4 -91 -24 -165 -46 -74 -21 -180
-48 -235 -59 -55 -11 -108 -22 -118 -24 -15 -4 -17 1 -11 30 4 22 2 40 -6 49
-7 9 -11 17 -9 19 10 9 490 158 549 170 81 18 147 19 189 5z m-1488 -23 c13
-13 32 -35 41 -49 10 -14 26 -26 35 -26 96 -2 116 -15 75 -48 -11 -9 -6 -9 16
2 42 20 52 13 53 -38 2 -73 12 -100 47 -123 l32 -22 -59 -51 c-73 -64 -157
-103 -208 -99 l-38 3 -3 53 c-3 43 0 53 15 58 40 12 48 23 58 71 6 28 19 62
30 74 l20 24 -20 -16 c-33 -27 -86 -51 -100 -45 -7 2 -16 19 -20 36 -4 18 -16
41 -27 52 -17 17 -18 24 -8 53 7 22 16 32 25 29 7 -3 16 -1 20 5 4 7 -4 11
-19 11 -27 0 -30 8 -20 48 8 28 25 28 55 -2z m1824 -122 c-15 -20 -48 -49 -74
-65 -50 -32 -157 -69 -199 -69 -57 0 -182 84 -182 122 0 19 4 20 68 13 37 -4
100 -7 141 -7 72 1 221 26 251 42 26 14 24 2 -5 -36z m98 14 c2 -7 -10 -29
-29 -48 -48 -52 -102 -146 -124 -220 -26 -85 -40 -261 -29 -380 4 -52 24 -189
43 -305 45 -275 55 -363 62 -585 5 -144 3 -211 -10 -300 -37 -265 -130 -494
-283 -697 -57 -76 -232 -249 -276 -272 -24 -13 -30 -11 -76 19 -28 17 -51 35
-50 39 0 3 30 29 66 56 193 148 355 379 438 628 52 154 68 265 69 467 0 201
-10 309 -65 650 -48 294 -55 400 -40 543 12 106 13 108 49 142 21 18 48 55 62
81 23 48 155 191 177 193 6 1 13 -5 16 -11z m-3048 -58 c22 -6 98 -15 168 -20
137 -11 165 -20 211 -69 l30 -31 -143 0 c-140 0 -144 1 -200 30 -65 35 -143
99 -121 99 8 0 33 -4 55 -9z m2509 -34 c22 -24 56 -53 74 -66 31 -21 32 -23
17 -40 -21 -23 -65 -34 -78 -21 -6 6 -30 11 -53 11 -39 0 -41 2 -36 25 2 14 0
25 -4 25 -21 0 -121 -43 -139 -60 -26 -24 -159 -43 -264 -39 -44 2 -82 6 -85
9 -3 3 1 23 8 45 l14 39 188 47 c104 26 203 52 219 57 65 22 94 15 139 -32z
m-2019 -12 c116 -38 175 -70 175 -95 0 -20 -4 -21 -57 -14 -109 13 -216 64
-243 115 -9 18 -7 20 17 20 16 0 64 -12 108 -26z m2345 -29 c0 -18 -44 -86
-66 -104 -33 -26 -129 -29 -160 -6 -10 8 -14 15 -8 15 6 0 22 11 35 24 14 14
43 27 69 31 25 4 61 16 80 26 37 19 50 23 50 14z m-446 -98 c-16 -17 -21 -25
-12 -18 9 7 42 15 72 18 47 5 56 3 56 -10 0 -43 -75 -76 -195 -88 -51 -5 -141
-24 -210 -44 -156 -47 -233 -53 -350 -27 -116 27 -233 37 -265 24 -18 -8 -20
-11 -7 -11 19 -1 23 -34 7 -75 -16 -44 -27 -29 -40 54 -14 90 -8 137 21 174
28 35 62 34 168 -8 47 -19 123 -45 169 -57 71 -18 91 -20 140 -11 31 6 120 19
197 29 125 15 142 20 171 45 17 15 38 28 46 28 8 0 23 6 34 14 31 23 29 -2 -2
-37z m-1854 3 c63 -19 65 -20 64 -52 -2 -70 -4 -71 -86 -33 -30 14 -89 29
-131 35 -77 10 -182 41 -201 61 -8 7 14 8 74 4 47 -4 103 -2 125 3 45 11 62 9
155 -18z m894 -36 c-11 -27 -14 -67 -12 -164 3 -117 1 -131 -18 -156 l-21 -29
-145 0 c-81 0 -144 3 -142 7 2 3 -9 9 -26 13 -35 8 -60 39 -60 75 0 14 16 50
35 80 19 30 35 60 35 67 0 20 19 25 36 9 19 -20 38 -20 98 -2 43 13 46 13 34
-1 -7 -9 -31 -24 -53 -34 -34 -16 -36 -19 -15 -19 49 0 111 39 182 115 40 41
75 75 79 75 5 0 1 -16 -7 -36z m-349 5 c4 -5 -3 -37 -15 -69 -18 -47 -28 -61
-51 -69 -16 -6 -87 -44 -158 -86 -70 -41 -136 -75 -145 -75 -10 0 -35 13 -55
28 -20 16 -65 44 -100 63 -36 18 -80 48 -99 67 l-35 33 -49 -17 c-59 -19 -70
-13 -37 22 20 21 21 27 9 34 -8 5 -23 10 -32 10 -23 0 -33 19 -14 26 39 15
144 -17 286 -88 80 -40 148 -74 152 -76 4 -1 6 3 3 10 -5 13 59 60 130 96 22
11 49 30 60 42 45 51 132 79 150 49z m1535 -21 c24 -13 46 -29 48 -36 6 -18
-60 -42 -116 -42 -64 0 -71 -9 -22 -31 22 -10 40 -23 40 -28 0 -20 -72 -23
-157 -8 -99 19 -123 13 -68 -16 37 -18 38 -20 20 -33 -30 -22 -109 -17 -175
11 -33 14 -64 25 -70 25 -18 0 -11 -18 10 -25 30 -9 24 -25 -9 -25 -35 0 -67
12 -99 38 l-24 18 129 41 c91 29 151 42 208 45 84 5 143 27 179 67 24 27 51
27 106 -1z m-840 -159 c70 -13 106 -15 135 -9 64 15 75 13 75 -14 0 -13 -5
-26 -12 -28 -9 -3 -9 -12 0 -38 20 -56 17 -61 -24 -44 -20 8 -38 14 -40 12 -2
-2 3 -22 11 -43 7 -22 10 -43 6 -48 -4 -4 -27 -1 -50 8 -24 8 -45 15 -46 15
-2 0 -1 -26 2 -59 7 -77 -8 -87 -53 -35 l-33 39 -1 -50 c-1 -77 -9 -83 -63
-46 -25 17 -47 31 -50 31 -2 0 -12 -18 -22 -40 -16 -36 -35 -53 -35 -31 0 4
-18 29 -40 54 -23 26 -36 48 -30 52 20 12 9 25 -45 56 -30 17 -55 35 -55 40 0
5 13 15 30 24 34 18 55 53 65 112 7 44 17 58 50 66 28 6 115 -2 225 -24z
m-780 -14 c0 -4 -7 -19 -15 -35 -13 -26 -14 -34 -1 -64 8 -19 30 -45 50 -58
l36 -25 -21 -19 c-12 -10 -32 -38 -46 -61 -14 -24 -29 -43 -33 -43 -5 0 -12
15 -15 33 -11 47 -13 49 -47 31 l-30 -16 7 42 c7 41 7 42 -21 40 -45 -3 -47
-2 -29 26 19 29 9 44 -29 44 -31 0 -9 16 90 65 89 44 104 50 104 40z m395
-206 c81 -31 85 -35 52 -64 -33 -30 -77 -34 -77 -7 0 20 -39 87 -46 79 -3 -3
2 -19 11 -36 11 -23 13 -36 6 -50 -17 -31 -40 -34 -51 -5 -6 14 -10 29 -10 33
0 4 -6 16 -14 26 -12 17 -13 12 -9 -46 5 -63 4 -67 -22 -87 -33 -26 -70 -29
-79 -6 -3 9 -6 34 -6 56 0 39 -11 46 -16 11 -8 -55 -15 -64 -41 -61 -44 5 -50
29 -21 87 14 28 18 46 11 39 -23 -19 -55 -89 -50 -109 4 -14 0 -19 -14 -19
-13 0 -19 7 -19 21 0 24 52 120 75 139 17 14 157 28 225 21 25 -2 68 -12 95
-22z m139 -170 c25 -50 46 -96 46 -103 0 -11 62 -124 105 -191 l19 -30 -28 25
c-15 14 -51 53 -79 88 -28 35 -53 58 -55 53 -6 -17 50 -129 106 -218 52 -79
136 -172 148 -161 6 7 -39 78 -94 146 -58 73 -25 61 45 -16 59 -65 153 -143
153 -126 0 3 -14 24 -31 46 -17 21 -29 41 -27 43 5 6 144 -76 278 -163 74 -48
89 -62 70 -62 -44 0 -70 -26 -70 -70 0 -74 -21 -92 -44 -37 -15 38 -68 85 -74
67 -3 -7 1 -17 7 -23 26 -26 6 -23 -76 13 -69 29 -105 38 -169 43 -73 4 -144
26 -144 44 0 4 12 19 27 35 l26 27 -29 11 c-16 6 -35 13 -41 15 -16 5 -17 27
-2 42 16 16 7 57 -15 61 -10 2 -32 -9 -50 -26 -38 -36 -73 -55 -86 -47 -6 3
-10 26 -10 50 0 76 -42 96 -89 44 l-28 -30 -7 32 c-3 17 -6 93 -7 168 -1 135
-1 136 -16 91 -16 -48 -22 -257 -9 -297 4 -13 3 -23 -2 -23 -12 0 -32 54 -32
88 0 49 -15 10 -20 -51 -4 -45 -9 -62 -20 -62 -8 0 -17 11 -20 25 -6 22 -11
25 -43 23 l-37 -2 6 53 c5 44 4 54 -11 59 -9 4 -25 2 -36 -4 -11 -6 -43 -12
-70 -13 l-50 -2 6 49 c4 27 22 104 39 171 31 114 34 121 56 118 13 -1 37 2 54
8 23 8 33 7 46 -5 31 -28 60 -18 143 48 25 20 49 29 80 31 25 1 56 10 69 19
12 9 28 16 35 16 7 1 32 -40 57 -90z m-1479 30 c8 -37 26 -45 71 -31 39 12 41
6 17 -38 l-18 -31 33 -28 c17 -15 32 -31 32 -34 0 -4 -18 -7 -40 -7 l-40 0 0
-52 0 -52 -34 33 -35 34 -31 -27 c-17 -14 -35 -26 -39 -26 -3 0 -5 18 -3 40 4
39 4 40 -41 52 l-46 12 39 29 40 28 -21 41 c-20 38 -20 40 -2 34 10 -4 30 -10
44 -13 24 -4 28 -1 39 31 14 44 26 46 35 5z m557 -149 c16 -39 16 -39 53 -29
20 6 39 8 42 6 2 -3 -3 -20 -13 -38 l-17 -33 38 -32 38 -31 -47 -7 -46 -7 0
-46 0 -47 -28 27 c-15 15 -34 27 -42 27 -8 0 -27 -12 -42 -27 l-28 -27 0 46
c0 49 -9 58 -56 58 -33 0 -30 14 9 41 17 12 34 24 36 25 2 2 -6 19 -18 39 -11
20 -21 38 -21 40 0 2 18 -2 41 -10 l41 -15 16 40 c9 22 19 40 22 40 3 0 12
-18 22 -40z m475 -305 c2 -1 -3 -15 -9 -32 -17 -45 -6 -63 34 -56 31 4 37 1
63 -37 30 -43 52 -60 80 -60 12 0 15 6 11 20 -3 11 -9 30 -12 42 -6 20 -1 18
39 -15 25 -20 49 -37 54 -37 4 0 8 28 8 63 0 56 2 62 22 65 17 3 24 -3 29 -25
14 -66 28 -96 44 -100 10 -3 38 -35 63 -71 88 -132 330 -372 353 -349 7 7
-115 142 -222 247 -137 133 -161 184 -114 236 30 31 43 31 28 -2 -11 -23 -9
-29 13 -48 21 -18 23 -25 15 -49 -8 -22 -6 -31 10 -47 30 -30 126 -60 194 -60
48 0 79 -8 158 -41 53 -23 108 -53 122 -66 41 -40 194 -221 277 -328 43 -54
102 -127 131 -162 54 -64 54 -69 2 -75 -20 -2 -32 -18 -65 -85 -22 -45 -49
-91 -60 -104 -48 -53 -195 -84 -230 -48 -15 15 -14 19 10 47 14 17 36 34 48
38 69 21 119 49 137 79 22 35 41 117 31 134 -4 5 -74 57 -156 115 l-150 106
85 -81 c47 -44 104 -95 128 -112 40 -30 42 -35 38 -70 -6 -52 -28 -74 -113
-114 -65 -30 -76 -39 -98 -83 -34 -67 -83 -102 -149 -108 -62 -5 -74 5 -56 49
18 43 4 51 -54 34 -56 -17 -86 -19 -86 -6 0 5 16 25 36 45 41 41 42 69 2 74
-22 3 -30 -4 -49 -38 -33 -59 -60 -73 -122 -65 -57 8 -97 40 -97 79 0 13 14
50 30 82 l31 58 -60 60 c-35 36 -103 131 -167 231 -156 247 -249 389 -314 480
-32 44 -63 98 -69 120 -14 51 -14 51 4 69 12 11 28 14 68 9 28 -3 53 -7 54 -8z
m-39 -283 c46 -75 124 -204 174 -287 137 -226 177 -286 226 -337 44 -46 45
-48 28 -67 -9 -10 -26 -43 -37 -72 -34 -89 -34 -89 -179 -89 -120 0 -128 1
-149 24 -40 43 -73 159 -78 276 l-4 105 28 -35 c50 -62 116 -130 121 -125 6 5
-75 130 -123 190 -63 78 -67 94 -76 289 -4 100 -12 194 -18 209 -13 33 -14 57
-3 57 4 -1 44 -62 90 -138z m-1093 28 c8 -38 13 -41 60 -30 22 5 41 7 43 6 1
-2 -6 -19 -18 -39 l-21 -35 38 -29 37 -30 -48 -7 -48 -8 7 -44 c7 -50 -1 -55
-35 -19 -13 14 -29 25 -35 25 -6 0 -22 -11 -35 -25 -34 -36 -42 -31 -35 19 l7
44 -41 7 c-23 4 -41 9 -41 13 0 3 15 18 33 33 l32 27 -17 30 c-10 17 -18 33
-18 37 0 7 31 1 64 -11 11 -4 20 5 32 35 18 45 29 46 39 1z m651 -43 c9 -27
17 -33 50 -37 l39 -5 -28 -19 c-27 -18 -28 -23 -22 -64 l6 -44 -30 23 c-31 22
-39 22 -81 -8 -23 -18 -24 -17 -16 2 21 55 18 69 -16 90 l-33 20 35 3 c44 4
57 15 65 53 8 35 15 31 31 -14z m-1 -568 c8 -37 25 -45 66 -30 18 6 34 9 37 7
2 -3 -5 -21 -17 -40 l-22 -34 36 -28 c40 -30 37 -41 -15 -46 l-35 -3 3 -50 3
-50 -35 34 -35 34 -35 -26 c-19 -15 -37 -27 -41 -27 -3 0 -4 19 -3 42 l3 42
-45 11 -45 11 37 25 c43 27 44 29 22 70 -19 38 -15 43 21 29 38 -15 51 -8 65
34 13 41 25 39 35 -5z m-1625 -206 c331 -48 544 -187 464 -301 -21 -31 -72
-55 -190 -90 -123 -37 -157 -54 -185 -91 l-21 -28 -70 29 c-89 38 -184 58
-275 58 -40 0 -73 2 -73 5 0 2 16 34 36 70 49 89 64 153 64 265 -1 52 -1 98
-1 103 1 9 114 0 251 -20z m4708 -90 c-1 -54 4 -123 12 -153 13 -58 62 -164
80 -175 26 -16 3 -25 -67 -25 -93 0 -187 -19 -277 -55 l-67 -27 -27 30 c-37
39 -67 53 -206 97 -136 42 -186 78 -186 134 0 37 45 92 110 133 104 66 375
129 592 137 l37 1 -1 -97z m-2168 -51 c269 -58 441 -140 825 -390 72 -47 162
-102 200 -123 246 -133 611 -130 772 5 l30 26 37 -189 c20 -103 36 -197 36
-207 0 -114 -395 -192 -688 -135 -214 42 -325 93 -627 291 -116 76 -247 156
-290 178 -196 98 -399 146 -620 145 -321 0 -521 -73 -916 -330 -359 -233 -518
-288 -824 -287 -184 0 -302 23 -393 75 -81 46 -81 48 -37 271 21 106 39 194
41 196 1 2 25 -13 53 -33 129 -93 371 -120 570 -65 115 32 197 75 446 235 369
236 553 312 870 359 17 2 118 3 225 1 152 -2 216 -7 290 -23z m-2060 -378 l0
-177 -79 6 c-93 7 -172 33 -235 76 -55 38 -67 71 -39 109 22 30 65 49 194 87
48 14 102 36 120 49 19 14 35 25 37 25 1 1 2 -78 2 -175z m3673 74 c122 -40
187 -76 187 -104 0 -30 -41 -73 -93 -98 -59 -29 -170 -56 -234 -56 l-43 0 0
171 0 170 31 -21 c16 -12 85 -40 152 -62z m-2219 -307 c89 -44 196 -103 239
-132 l77 -51 68 45 c85 57 213 125 323 172 l86 37 71 -36 c40 -20 72 -38 72
-40 0 -2 -28 -14 -62 -26 -116 -41 -362 -169 -443 -230 -119 -89 -118 -88
-158 -53 -99 87 -327 214 -509 284 -48 19 -88 38 -88 42 0 11 121 67 144 67
11 0 92 -36 180 -79z"/>
<path d="M3836 4530 c4 -8 66 -103 137 -210 143 -214 255 -362 268 -354 33 20
-28 115 -256 399 -79 98 -161 189 -149 165z"/>
<path d="M3605 3600 c-49 -3 -84 -7 -77 -8 10 -2 13 -27 10 -111 l-3 -110 83
-3 c79 -3 82 -2 82 20 0 20 -4 22 -61 22 -60 0 -60 0 -57 28 3 24 7 27 41 26
33 -1 37 2 37 22 0 21 -5 24 -40 24 -36 0 -40 3 -40 25 0 24 3 25 60 25 57 0
60 1 60 25 0 14 -1 24 -2 23 -2 -1 -43 -5 -93 -8z"/>
<path d="M3370 3584 c-14 -3 -39 -7 -56 -9 l-30 -5 13 -76 c7 -41 14 -93 15
-115 3 -36 5 -40 28 -37 26 3 28 14 15 74 -4 16 1 23 16 27 16 4 26 -4 47 -38
18 -29 34 -44 48 -45 34 0 35 11 4 49 -34 41 -36 47 -15 67 18 19 20 78 2 92
-16 14 -56 21 -87 16z"/>
<path d="M3777 3579 c-26 -15 -39 -56 -26 -80 5 -11 35 -31 65 -44 57 -25 64
-35 39 -55 -19 -16 -81 -5 -93 17 -8 13 -11 12 -26 -8 -16 -23 -16 -24 11 -36
76 -33 140 -24 161 23 17 35 0 68 -45 88 -60 27 -68 32 -68 47 0 24 61 23 78
-1 l15 -21 16 23 c16 22 16 23 -21 40 -43 20 -80 22 -106 7z"/>
<path d="M3104 3506 c-42 -42 -46 -95 -11 -147 45 -67 121 -73 176 -15 l22 24
-22 16 c-21 14 -23 14 -33 -7 -17 -34 -80 -36 -101 -4 -23 35 -23 97 0 113 23
17 61 18 71 2 5 -8 10 -6 15 8 15 38 10 44 -37 44 -39 0 -51 -5 -80 -34z"/>
<path d="M3979 3512 c-40 -36 -52 -115 -24 -158 25 -38 78 -58 120 -44 32 10
33 13 23 36 -8 17 -15 21 -22 14 -19 -19 -65 -11 -82 15 -28 42 6 125 50 125
35 0 56 -10 56 -26 0 -18 9 -18 32 2 17 16 17 18 -14 40 -45 34 -99 32 -139
-4z"/>
<path d="M4250 3471 c0 -5 -34 -46 -75 -92 -69 -76 -74 -85 -59 -96 23 -17 34
-16 34 1 0 30 26 38 64 19 37 -17 42 -28 26 -53 -7 -11 -3 -18 13 -27 35 -19
37 -17 38 50 0 34 4 88 8 120 7 57 7 59 -21 73 -15 8 -28 10 -28 5z"/>
<path d="M2826 3403 c-22 -12 -23 -13 -10 -75 7 -35 16 -89 20 -120 7 -63 7
-63 34 -48 16 9 18 15 10 36 -12 32 -9 38 31 55 29 12 33 11 50 -10 16 -20 21
-21 43 -9 24 13 24 13 -65 98 -83 79 -92 84 -113 73z"/>
<path d="M4410 3392 c0 -4 -25 -48 -56 -97 -52 -83 -54 -90 -38 -102 16 -12
22 -6 61 55 23 37 43 63 43 57 0 -5 -7 -43 -15 -84 -9 -40 -14 -75 -12 -77 2
-2 34 19 71 47 37 28 69 49 71 47 5 -5 -64 -110 -78 -119 -5 -4 1 -14 14 -22
22 -16 23 -15 72 66 27 45 56 89 64 98 12 14 10 18 -11 33 -32 20 -32 20 -62
-7 -13 -13 -38 -31 -55 -41 l-31 -18 7 53 c4 30 11 61 16 70 6 11 0 20 -21 32
-31 19 -40 21 -40 9z"/>
<path d="M2613 3274 l-61 -36 59 -89 c33 -49 59 -93 59 -99 0 -15 12 -12 40
10 14 11 20 20 13 20 -14 0 -54 61 -47 72 9 15 41 8 78 -17 31 -21 40 -23 56
-12 11 6 20 14 20 17 0 3 -20 16 -44 28 -42 23 -44 25 -39 62 4 29 1 42 -16
59 -29 29 -47 27 -118 -15z"/>
<path d="M2439 3164 l-66 -45 57 -87 c31 -48 59 -92 61 -99 3 -8 28 3 71 30
83 53 84 53 68 72 -10 13 -18 11 -55 -15 -51 -35 -61 -37 -75 -11 -14 27 -14
29 20 46 26 13 29 19 20 36 -11 19 -11 19 -42 -2 -30 -22 -31 -22 -44 -4 -20
27 -18 30 31 60 39 22 44 29 35 45 -6 11 -12 20 -13 19 -1 0 -32 -21 -68 -45z"/>
<path d="M4734 3192 c6 -10 -84 -157 -110 -178 -11 -9 1 -21 58 -59 67 -44 72
-46 85 -29 11 15 9 19 -15 31 -15 7 -38 22 -51 32 l-23 18 47 71 c27 40 52 72
56 72 19 0 8 17 -22 34 -18 11 -29 14 -25 8z"/>
<path d="M2253 3057 c-46 -23 -83 -43 -83 -46 0 -3 4 -12 9 -19 7 -12 14 -11
41 3 17 9 33 15 34 13 10 -16 66 -154 66 -164 0 -10 7 -11 30 -3 29 11 38 24
23 31 -11 4 -73 135 -73 152 0 8 14 17 31 21 21 5 29 11 25 22 -3 8 -6 19 -6
24 0 13 -4 11 -97 -34z"/>
<path d="M4940 3062 c0 -5 -34 -45 -75 -88 -41 -44 -74 -82 -75 -85 -1 -19 34
-17 50 3 18 22 18 22 55 5 33 -16 37 -21 32 -46 -5 -23 -1 -30 17 -39 22 -10
22 -9 37 110 l14 120 -27 14 c-16 8 -28 11 -28 6z"/>
<path d="M1553 3006 c4 -9 -14 -152 -25 -208 -2 -8 9 -14 25 -16 25 -3 27 0
27 30 0 48 12 61 47 54 64 -14 114 34 93 89 -12 30 -36 42 -113 53 -42 7 -57
6 -54 -2z"/>
<path d="M5051 2943 c-24 -116 -24 -127 -4 -151 22 -28 86 -44 120 -31 26 10
43 44 64 129 7 30 18 58 23 62 6 4 -2 12 -17 17 -37 14 -37 14 -37 -10 0 -12
-9 -53 -21 -91 -20 -68 -21 -69 -51 -66 -50 5 -56 26 -32 117 l20 80 -20 5
c-12 3 -23 6 -26 6 -3 0 -12 -30 -19 -67z"/>
<path d="M5570 2987 c-87 -24 -86 -23 -73 -39 15 -20 56 -186 48 -198 -3 -5
-3 -10 2 -10 11 0 166 40 169 43 2 2 1 13 -3 25 -3 15 -9 19 -17 14 -6 -5 -31
-14 -56 -20 -47 -12 -60 -5 -60 29 0 18 20 29 51 29 20 0 23 8 13 34 -4 11
-11 13 -31 5 -38 -14 -50 -11 -55 16 -5 26 -2 29 65 41 31 5 37 10 37 30 0 13
-3 23 -7 23 -5 -1 -42 -11 -83 -22z"/>
<path d="M2033 2985 c-34 -15 -50 -48 -39 -83 8 -25 26 -33 95 -41 59 -6 71
-19 46 -45 -19 -18 -80 -22 -91 -5 -8 14 -24 -8 -24 -33 0 -15 9 -18 51 -18
88 0 144 54 114 110 -16 30 -37 38 -98 39 -44 1 -48 3 -45 24 3 25 50 36 73
17 11 -9 16 -7 24 9 6 11 11 23 11 28 0 14 -84 13 -117 -2z"/>
<path d="M1805 2966 c-73 -33 -84 -154 -18 -206 34 -26 92 -26 126 1 59 46 56
162 -6 199 -37 23 -61 24 -102 6z m85 -46 c24 -24 27 -86 4 -118 -10 -14 -25
-22 -44 -22 -42 0 -64 37 -57 92 9 65 57 88 97 48z"/>
<path d="M5278 2845 l-3 -115 62 0 c34 0 73 5 87 11 63 29 72 145 15 194 -26
21 -41 25 -94 25 l-64 0 -3 -115z"/>
<path d="M244 2091 c-3 -14 -8 -32 -10 -39 -8 -28 8 -32 28 -7 17 22 27 25 84
25 l64 0 0 -172 c0 -204 -6 -249 -31 -255 -39 -11 -7 -19 65 -18 79 1 106 10
63 20 -14 4 -28 16 -31 28 -3 12 -6 106 -6 210 l0 187 49 0 c60 0 101 -14 101
-35 0 -8 5 -15 10 -15 6 0 10 20 10 44 l0 44 -132 -5 c-73 -2 -161 0 -196 5
-62 9 -62 9 -68 -17z"/>
<path d="M2377 2113 c-4 -3 -7 -107 -7 -230 l0 -223 -25 -12 c-39 -17 -21 -25
55 -23 79 2 94 8 52 23 l-29 10 -8 162 c-4 89 -5 163 -3 165 2 3 82 -79 178
-181 95 -101 178 -183 184 -181 7 2 12 78 14 231 2 218 3 228 22 233 44 12 16
23 -55 23 -43 0 -75 -4 -75 -10 0 -5 8 -10 19 -10 10 0 23 -6 28 -12 6 -7 13
-89 16 -183 l6 -170 -31 35 c-36 40 -332 360 -334 360 0 0 -4 -3 -7 -7z"/>
<path d="M4623 2113 c-12 -2 -36 -17 -53 -33 -27 -25 -30 -34 -30 -85 l0 -58
84 -81 c46 -45 86 -92 90 -104 19 -58 -40 -111 -108 -98 -39 7 -51 20 -61 59
-11 44 -25 31 -25 -23 0 -41 4 -51 22 -61 30 -16 118 -15 153 2 64 31 94 123
61 187 -8 15 -48 58 -90 95 -65 59 -76 73 -76 101 0 47 27 68 81 64 38 -3 46
-7 59 -35 21 -46 30 -41 30 17 0 45 -2 50 -22 50 -13 0 -39 2 -58 4 -19 2 -45
2 -57 -1z"/>
<path d="M5090 2079 c-14 -50 -7 -59 23 -31 19 18 35 22 86 22 l62 0 -1 -182
c-2 -211 -5 -235 -32 -244 -33 -10 -12 -17 66 -20 75 -3 107 8 64 22 -13 4
-26 12 -30 18 -4 6 -8 100 -8 209 l0 197 48 0 c64 0 90 -9 97 -31 11 -34 25
-20 25 24 l0 43 -167 -1 c-93 0 -180 3 -195 8 -25 7 -28 4 -38 -34z"/>
<path d="M6342 2102 c-66 -24 -107 -62 -138 -127 -43 -91 -26 -215 38 -284 90
-96 260 -100 356 -8 58 56 77 102 77 193 0 72 -3 85 -30 129 -59 95 -191 137
-303 97z m151 -33 c97 -50 139 -171 102 -296 -47 -157 -241 -165 -317 -14 -54
106 -30 245 51 298 38 26 125 32 164 12z"/>
<path d="M670 2101 c0 -5 11 -12 25 -15 l25 -6 0 -210 c0 -202 -1 -210 -21
-220 -31 -17 -16 -23 63 -25 87 -2 101 3 59 21 l-31 13 0 112 0 112 77 -7 c42
-3 100 -6 130 -6 l53 0 0 -64 c0 -105 -10 -154 -32 -159 -11 -3 -18 -10 -15
-14 7 -12 162 -9 162 3 0 5 -10 10 -22 12 -30 4 -35 45 -31 257 3 164 4 170
25 181 13 6 20 14 16 17 -10 11 -151 8 -158 -3 -3 -5 2 -10 12 -10 34 0 43
-21 43 -102 l0 -78 -130 0 -130 0 0 86 c0 77 2 86 20 91 45 12 15 23 -60 23
-44 0 -80 -4 -80 -9z"/>
<path d="M1235 2100 c-3 -4 6 -11 19 -14 19 -5 24 -14 30 -52 8 -60 8 -176 0
-292 -6 -78 -10 -92 -26 -98 -37 -11 -7 -17 117 -21 l125 -4 10 26 c12 31 13
75 2 75 -4 0 -13 -14 -19 -30 -11 -31 -13 -31 -75 -28 l-63 3 -3 98 -3 97 55
0 c51 0 56 -2 62 -25 10 -40 24 -18 24 38 0 40 -3 48 -12 39 -7 -7 -38 -12
-70 -12 l-58 0 0 85 0 85 55 0 c49 0 57 -3 67 -25 15 -33 28 -22 28 26 l0 39
-130 -1 c-71 0 -132 -4 -135 -9z"/>
<path d="M1780 2101 c0 -5 11 -12 25 -15 l25 -6 0 -129 c0 -196 16 -255 82
-304 56 -42 168 -40 231 5 54 39 69 93 75 271 4 145 7 160 23 164 43 12 14 23
-56 23 -74 0 -99 -12 -50 -24 l25 -6 0 -169 c0 -158 -1 -170 -23 -202 -39 -58
-106 -76 -167 -44 -55 28 -64 62 -68 242 -4 155 -3 162 17 175 36 22 24 28
-59 28 -44 0 -80 -4 -80 -9z"/>
<path d="M2927 2103 c-4 -3 3 -11 16 -17 22 -11 22 -16 25 -213 2 -197 2 -202
-20 -222 -12 -12 -20 -21 -17 -22 2 -1 37 -2 77 -3 75 -1 103 8 58 20 -23 6
-24 9 -31 129 -4 68 -4 164 0 215 6 78 10 93 26 97 10 3 16 9 13 14 -6 10
-137 12 -147 2z"/>
<path d="M3120 2103 c0 -5 14 -15 32 -23 28 -14 39 -35 118 -235 49 -121 94
-221 101 -223 13 -2 72 126 176 382 21 52 34 72 56 81 15 6 24 14 20 18 -10
11 -131 8 -138 -3 -3 -5 1 -10 9 -10 26 0 26 -16 2 -86 -36 -103 -97 -258
-105 -267 -8 -8 -131 311 -131 339 0 7 7 14 15 14 8 0 15 5 15 10 0 6 -35 10
-85 10 -47 0 -85 -3 -85 -7z"/>
<path d="M3660 2102 c0 -4 10 -12 23 -17 22 -10 22 -13 25 -217 2 -199 2 -208
-18 -218 -11 -6 -20 -14 -20 -18 0 -4 56 -8 124 -9 140 -3 149 1 144 64 l-3
38 -15 -30 c-14 -27 -21 -30 -68 -33 -76 -4 -82 4 -82 109 l0 89 56 0 c47 0
57 -3 61 -20 7 -27 23 -25 23 3 0 12 3 31 6 43 5 20 3 21 -70 16 l-76 -5 0 87
0 87 58 -3 c48 -3 59 -7 67 -25 5 -13 13 -23 17 -23 5 0 8 10 8 23 0 12 3 32
6 44 l6 23 -136 -1 c-75 0 -136 -4 -136 -7z"/>
<path d="M4030 2103 c0 -4 10 -13 23 -18 22 -10 22 -14 25 -200 1 -104 0 -200
-3 -212 -3 -12 -14 -25 -26 -28 -36 -12 -10 -20 67 -21 81 -1 101 8 54 25 -30
10 -30 10 -30 89 0 43 2 81 4 83 3 3 22 3 43 1 34 -4 44 -12 95 -83 66 -90 87
-107 151 -115 54 -8 90 1 67 16 -8 6 -24 10 -35 10 -25 0 -59 31 -131 121 -49
60 -56 73 -46 87 61 84 73 127 49 178 -26 53 -65 68 -194 72 -62 2 -113 0
-113 -5z m189 -34 c38 -13 61 -54 61 -108 0 -83 -36 -118 -106 -105 l-34 6 0
103 c0 120 7 129 79 104z"/>
<path d="M4870 2101 c0 -5 9 -11 20 -14 19 -5 20 -14 20 -220 0 -209 -1 -216
-21 -222 -35 -11 -13 -17 66 -19 83 -2 102 6 55 23 l-30 10 0 210 c0 201 1
210 20 216 42 13 17 25 -55 25 -41 0 -75 -4 -75 -9z"/>
<path d="M5510 2099 c0 -6 8 -13 18 -16 22 -6 69 -68 126 -168 45 -79 46 -81
46 -172 0 -84 -2 -92 -21 -98 -35 -11 -12 -19 64 -20 86 -2 100 3 58 21 l-31
13 0 89 c0 76 4 96 26 137 55 105 114 186 144 199 42 17 27 26 -42 26 -57 0
-58 0 -52 -25 5 -20 -5 -46 -41 -108 -26 -45 -51 -86 -55 -90 -8 -9 -120 172
-120 192 0 6 5 11 11 11 5 0 7 5 4 10 -9 14 -135 13 -135 -1z"/>
<path d="M6740 2101 c0 -3 10 -11 23 -16 22 -10 22 -14 25 -200 1 -104 0 -200
-3 -212 -3 -12 -14 -25 -25 -28 -40 -13 -10 -22 65 -20 80 2 104 10 62 20 -31
8 -37 28 -37 133 l0 82 55 0 c49 0 57 -3 67 -25 16 -36 28 -21 28 38 0 40 -3
48 -12 39 -7 -7 -39 -12 -75 -12 l-63 0 0 85 0 86 63 -3 c53 -3 63 -6 72 -25
9 -22 25 -31 25 -15 1 4 3 24 6 44 l6 38 -141 -1 c-78 -1 -141 -4 -141 -8z"/>
<path d="M310 1260 c0 -20 5 -20 3337 -18 3170 3 3338 4 3341 21 3 16 -161 17
-3337 17 -3335 0 -3341 0 -3341 -20z"/>
<path d="M415 898 c-2 -7 -11 -62 -20 -123 -43 -298 -86 -559 -96 -576 -6 -12
-20 -19 -39 -19 -17 0 -30 -4 -30 -10 0 -6 49 -10 126 -10 81 0 123 4 119 10
-3 6 -16 10 -29 10 -12 0 -30 6 -40 13 -17 12 -16 23 8 212 15 110 28 207 29
215 2 8 23 -28 47 -80 86 -184 188 -375 202 -378 9 -2 52 78 128 237 63 132
116 238 118 236 2 -2 17 -101 33 -220 20 -149 26 -221 19 -230 -5 -6 -7 -15
-3 -18 10 -11 255 -8 249 2 -4 5 -24 12 -46 16 -26 4 -46 15 -55 28 -7 12 -32
148 -54 302 -63 430 -57 403 -83 392 -7 -3 -71 -129 -143 -281 -71 -152 -132
-276 -136 -276 -4 0 -11 12 -17 28 -5 15 -65 141 -132 280 -114 233 -142 277
-155 240z"/>
<path d="M3452 899 c-122 -20 -222 -96 -276 -209 -29 -60 -31 -73 -31 -170 1
-93 4 -111 27 -160 39 -79 87 -132 155 -168 210 -112 475 -30 571 176 24 51
27 68 27 172 0 97 -3 122 -22 162 -49 106 -155 180 -286 199 -72 10 -93 10
-165 -2z m176 -75 c135 -67 200 -279 142 -466 -34 -112 -111 -165 -225 -156
-152 13 -252 133 -263 317 -12 214 68 330 229 331 50 0 77 -6 117 -26z"/>
<path d="M5747 783 c-4 -70 -7 -225 -7 -343 0 -240 -5 -260 -61 -260 -16 0
-29 -4 -29 -10 0 -6 52 -10 135 -10 131 0 175 11 96 24 -23 3 -42 13 -46 23
-8 19 -24 465 -17 473 2 3 15 -8 29 -25 74 -89 499 -505 512 -503 14 3 17 46
22 343 3 187 7 341 7 342 20 22 38 33 58 33 13 0 24 5 24 10 0 6 -52 10 -136
10 -130 0 -168 -10 -85 -24 23 -3 42 -13 46 -23 8 -19 20 -435 14 -467 -3 -15
-67 46 -268 255 -145 151 -269 275 -276 277 -8 2 -14 -33 -18 -125z"/>
<path d="M1503 893 c-131 -2 -213 -7 -213 -13 0 -6 13 -10 28 -10 64 0 63 7
63 -338 0 -202 -4 -319 -11 -332 -7 -13 -21 -20 -40 -20 -17 0 -30 -4 -30 -10
0 -6 54 -10 143 -10 79 0 177 -3 218 -6 97 -8 107 0 116 89 4 48 3 67 -6 67
-6 0 -14 -13 -17 -29 -9 -45 -35 -62 -102 -68 -73 -7 -128 9 -136 40 -3 12 -6
77 -6 145 l0 122 76 0 c88 0 110 -9 119 -50 4 -16 10 -30 15 -30 9 0 25 149
17 157 -3 2 -14 0 -25 -6 -12 -6 -62 -11 -112 -11 l-91 0 3 127 3 128 80 -3
c91 -4 125 -20 125 -57 0 -26 18 -35 25 -12 2 6 6 40 8 75 5 59 4 62 -16 60
-12 -2 -118 -4 -234 -5z"/>
<path d="M6728 893 c-134 -2 -218 -7 -218 -13 0 -6 13 -10 28 -10 16 0 37 -6
48 -14 18 -14 19 -29 19 -329 0 -337 -1 -347 -51 -347 -12 0 -25 -4 -28 -9 -3
-4 95 -11 217 -14 175 -4 225 -2 236 8 16 16 28 145 13 145 -6 0 -13 -13 -17
-29 -11 -52 -38 -66 -126 -66 -112 0 -113 2 -117 170 l-4 135 84 0 c92 0 118
-13 118 -58 0 -12 4 -22 9 -22 9 0 21 72 21 132 0 38 0 39 -22 24 -16 -12 -47
-16 -116 -16 l-93 0 3 128 3 127 65 -2 c113 -5 130 -10 137 -44 6 -30 18 -45
26 -32 3 5 8 38 12 76 6 61 5 67 -12 65 -10 -2 -116 -4 -235 -5z"/>
<path d="M1905 880 c3 -5 15 -10 26 -10 11 0 29 -5 40 -10 18 -10 19 -25 19
-326 0 -198 -4 -322 -10 -335 -7 -12 -21 -19 -40 -19 -17 0 -30 -4 -30 -9 0
-9 441 -21 472 -13 16 4 25 40 31 121 3 35 -19 37 -26 2 -10 -48 -48 -66 -136
-65 -106 1 -118 9 -126 86 -3 35 -5 170 -3 301 3 223 4 240 22 253 11 8 30 14
43 14 13 0 23 5 23 10 0 6 -59 10 -156 10 -101 0 -153 -3 -149 -10z"/>
<path d="M2480 880 c0 -5 14 -10 30 -10 17 0 39 -9 51 -21 19 -19 20 -29 17
-328 -3 -330 -5 -341 -54 -341 -13 0 -24 -4 -24 -10 0 -6 51 -11 128 -12 180
-3 231 0 279 18 44 16 107 78 123 120 14 36 12 109 -4 147 -12 30 -96 117
-113 117 -5 0 -14 4 -22 9 -11 7 -7 18 22 52 40 46 52 89 44 150 -6 49 -29 76
-82 100 -34 16 -67 19 -217 19 -112 0 -178 -4 -178 -10z m331 -66 c35 -34 53
-102 39 -153 -14 -54 -41 -75 -98 -75 l-47 -1 -3 119 c-1 66 0 126 3 134 8 22
73 8 106 -24z m20 -309 c50 -32 82 -101 83 -176 1 -53 -2 -62 -31 -91 -29 -29
-39 -32 -89 -32 -88 0 -94 12 -94 191 l0 145 48 -7 c26 -3 63 -17 83 -30z"/>
<path d="M4000 880 c0 -5 13 -10 28 -10 16 0 37 -6 48 -14 18 -13 19 -30 22
-238 1 -123 7 -247 13 -276 15 -73 60 -130 134 -167 53 -27 70 -30 151 -30 81
0 97 3 150 30 63 33 113 92 135 163 7 22 13 135 16 272 5 254 6 260 60 260 13
0 23 5 23 10 0 6 -52 10 -135 10 -83 0 -135 -4 -135 -10 0 -5 13 -10 28 -10
16 0 37 -6 48 -14 18 -14 19 -28 19 -248 0 -168 -4 -246 -14 -281 -45 -154
-262 -173 -333 -29 -22 45 -23 59 -26 297 -3 228 -2 250 14 262 10 7 28 13 41
13 13 0 23 5 23 10 0 6 -58 10 -155 10 -97 0 -155 -4 -155 -10z"/>
<path d="M4870 881 c0 -5 18 -11 39 -15 22 -3 41 -13 45 -22 10 -26 7 -611 -4
-638 -7 -20 -16 -26 -40 -26 -16 0 -30 -4 -30 -10 0 -6 57 -10 150 -10 93 0
150 4 150 10 0 6 -13 10 -28 10 -59 0 -66 15 -70 154 l-4 126 50 0 51 0 73
-102 c82 -115 136 -174 174 -188 32 -12 204 -13 204 -1 0 5 -19 11 -41 15 -34
5 -54 19 -108 74 -37 37 -97 107 -135 156 l-69 88 32 25 c17 14 45 48 61 77
61 105 30 222 -69 265 -45 19 -68 21 -240 21 -105 0 -191 -4 -191 -9z m341
-64 c47 -31 69 -80 69 -150 0 -107 -38 -157 -121 -157 -82 0 -79 -7 -79 164 0
84 3 156 7 159 15 16 91 6 124 -16z"/>
</g>
</svg>
